# xmcd CD database file
#
# Track frame offsets:
#	150
#	20982
#	34330
#	54880
#	77180
#	95705
#	115675
#	127502
#	142595
#	158457
#	181037
#	200510
#	213527
#	232292
#	246345
#	270292
#	297185
#
# Disc length: 4229 seconds
#
# Revision: 2
# Processed by: cddbd v1.5.1PL0 Copyright (c) Steve Scherf et al.
# Submitted via: CDex 1.51
#
DISCID=e5108311
DTITLE=Various Artist - Wild Dog - Ichiban Blast
DYEAR=1993
DGENRE=Pop
TTITLE0=Clarence Carter - Strokin'
TTITLE1=Chicago Bob Nelson - Hit and Run Lover
TTITLE2=Tyrone Davis - Something's Mighty Wrong
TTITLE3=Theodis Ealey - Lil' Brown Eyes
TTITLE4=Chick Willis - I Want A Big Fat Woman
TTITLE5=Luther "Houserocker" Johnson - Something You Got
TTITLE6=Trudy Lynn - Fish Girl Blues
TTITLE7=Sonny Rhodes - Ain't No Blue In Town
TTITLE8=Chi-Lites - Only You
TTITLE9=The Impressions - First Impressions
TTITLE10=Clarence Carter - Messin' With My Mind
TTITLE11=Legendary Blues Band - I Need You So Bad
TTITLE12=Chick Willis - One Slick Woman
TTITLE13=Dr. Hector And The Grove Injectors - Woman Like You
TTITLE14=Bill Doggett W/ The King All Stars - Honky Tonk
TTITLE15=Gary B. B. Coleman - Crosscut Saw
TTITLE16=William Bell - I'd Rather Be Blind
EXTD=YEAR: 1993
EXTT0=
EXTT1=
EXTT2=
EXTT3=
EXTT4=
EXTT5=
EXTT6=
EXTT7=
EXTT8=
EXTT9=
EXTT10=
EXTT11=
EXTT12=
EXTT13=
EXTT14=
EXTT15=
EXTT16=
PLAYORDER=
